# xmcd
#
# Track frame offsets:
#	150
#	14605
#	27430
#	44522
#	59613
#	74112
#	90690
#	106630
#	132150
#	149670
#	161714
#	171120
#
# Disc length: 2508 seconds
# Revision: 1
# Processed by: cddbd v1.5.2PL0 Copyright (c) Steve Scherf et al.
# Submitted via: dBpowerAMP V12.0
#
DISCID=b309ca0c
DTITLE=Various Artist - The Bluesmasters Volume Two
DYEAR=2012
DGENRE=Blues
TTITLE0=Cassie Taylor - Bring It Home To Me
TTITLE1=Cassie Taylor - Talk To Me Baby
TTITLE2=Hazel Miller - Tangoray
TTITLE3=Cassie Taylor - I Just Wanna Make Love To You
TTITLE4=Cassie Taylor - Same Old Blues
TTITLE5=Cassie Taylor - I'd Rather Drink Muddy Water
TTITLE6=Hazel Miller - Big Boss Man
TTITLE7=Cassie Taylor - Fine Cadillac
TTITLE8=Mickey Thomas - Red Rooster
TTITLE9=Cassie Taylor - 3220 Blues
TTITLE10=Mickey Thomas - Get Me a Car
TTITLE11=Cassie Taylor - Honest I Do
EXTD=
EXTT0=
EXTT1=
EXTT2=
EXTT3=
EXTT4=
EXTT5=
EXTT6=
EXTT7=
EXTT8=
EXTT9=
EXTT10=
EXTT11=
PLAYORDER=
